<?xml version="1.0" encoding="UTF-8" standalone="no"?>
<!-- Generator: Adobe Illustrator 21.1.0, SVG Export Plug-In . SVG Version: 6.00 Build 0)  -->

<svg
   version="1.1"
   id="Ebene_1"
   x="0px"
   y="0px"
   viewBox="0 0 407.17311 343.14354"
   xml:space="preserve"
   sodipodi:docname="drawio_edit.svg"
   inkscape:version="1.2.2 (b0a8486541, 2022-12-01)"
   width="407.17313"
   height="343.14355"
   xmlns:inkscape="http://www.inkscape.org/namespaces/inkscape"
   xmlns:sodipodi="http://sodipodi.sourceforge.net/DTD/sodipodi-0.dtd"
   xmlns="http://www.w3.org/2000/svg"
   xmlns:svg="http://www.w3.org/2000/svg"><defs
   id="defs17"><filter
     inkscape:collect="always"
     style="color-interpolation-filters:sRGB"
     id="filter1104"
     x="-0.20893059"
     y="-0.14746367"
     width="1.4309627"
     height="1.2843492"><feGaussianBlur
       inkscape:collect="always"
       stdDeviation="4.5092075"
       id="feGaussianBlur1106" /></filter></defs><sodipodi:namedview
   id="namedview15"
   pagecolor="#ffffff"
   bordercolor="#000000"
   borderopacity="0.25"
   inkscape:showpageshadow="2"
   inkscape:pageopacity="0.0"
   inkscape:pagecheckerboard="0"
   inkscape:deskcolor="#d1d1d1"
   showgrid="false"
   inkscape:zoom="1.460396"
   inkscape:cx="-3.4237289"
   inkscape:cy="171.18645"
   inkscape:window-width="2560"
   inkscape:window-height="1516"
   inkscape:window-x="0"
   inkscape:window-y="0"
   inkscape:window-maximized="1"
   inkscape:current-layer="Ebene_1" />
<style
   type="text/css"
   id="style2">
	.st0{fill:#F08705;}
	.st1{fill:#DF6C0C;}
	.st2{fill:#FFFFFF;}
	.st3{fill:#333333;}
</style>
<rect
   style="fill:#800080;stroke:#0000ff"
   id="rect146"
   width="406.17313"
   height="342.14355"
   x="0.5"
   y="0.5" /><g
   id="g12"
   transform="translate(122.78657,90.771778)">
	<path
   class="st0"
   d="m 161.6,154.7 c 0,3.9 -3.2,6.9 -6.9,6.9 H 6.9 C 3,161.6 0,158.4 0,154.7 V 6.9 C 0,3 3.2,0 6.9,0 h 147.8 c 3.9,0 6.9,3.2 6.9,6.9 z"
   id="path4" />
	<g
   id="g8">
		<path
   class="st1"
   d="m 161.6,154.7 c 0,3.9 -3.2,6.9 -6.9,6.9 H 55.3 l -32.2,-32.7 20,-32.7 59.4,-73.8 58.9,60.7 z"
   id="path6" />
	</g>
	<path
   class="st2"
   d="m 132.7,90.3 h -17 l -18,-30.6 c 4,-0.8 7,-4.4 7,-8.6 V 28 c 0,-4.9 -3.9,-8.8 -8.8,-8.8 h -30 c -4.9,0 -8.8,3.9 -8.8,8.8 v 23.1 c 0,4.3 3,7.8 6.9,8.6 L 46,90.4 H 29 c -4.9,0 -8.8,3.9 -8.8,8.8 v 23.1 c 0,4.9 3.9,8.8 8.8,8.8 h 30 c 4.9,0 8.8,-3.9 8.8,-8.8 V 99.2 c 0,-4.9 -3.9,-8.8 -8.8,-8.8 H 56.1 L 73.9,60 h 13.9 l 17.9,30.4 h -3 c -4.9,0 -8.8,3.9 -8.8,8.8 v 23.1 c 0,4.9 3.9,8.8 8.8,8.8 h 30 c 4.9,0 8.8,-3.9 8.8,-8.8 V 99.2 c 0,-4.9 -3.9,-8.9 -8.8,-8.9 z"
   id="path10" />
</g>
<path
   id="path1102"
   style="fill:#000000;stroke:#000000;stroke-width:1.82741;stroke-dasharray:none;filter:url(#filter1104);opacity:0.66322902"
   inkscape:transform-center-x="1.0210052"
   d="m 282.79767,283.09206 13.00515,-13.5681 16.44484,28.4833 15.32303,-8.84675 -16.44485,-28.4833 18.25187,-4.47815 -57.82407,-46.36941 z"
   sodipodi:nodetypes="cccccccc"
   inkscape:transform-center-y="-7.7579227" /><path
   id="path301"
   style="fill:#ffffff;stroke:#000000;stroke-width:1.82741;stroke-dasharray:none"
   inkscape:transform-center-x="1.0210052"
   d="m 270.79767,279.09206 13.00515,-13.5681 16.44484,28.4833 15.32303,-8.84675 -16.44485,-28.4833 18.25187,-4.47815 -57.82407,-46.36941 z"
   sodipodi:nodetypes="cccccccc"
   inkscape:transform-center-y="-7.7579227" /></svg>
