<?xml version="1.0" encoding="UTF-8" standalone="no"?>
<!-- Generator: Adobe Illustrator 21.1.0, SVG Export Plug-In . SVG Version: 6.00 Build 0)  -->

<svg
   version="1.1"
   id="icon-drawio"
   viewBox="0 0 15.999999 15.999999"
   xml:space="preserve"
   width="16"
   height="16"
   xmlns="http://www.w3.org/2000/svg"
   xmlns:svg="http://www.w3.org/2000/svg"><defs
   id="defs17" />
<style
   type="text/css"
   id="style2">
	.st0{fill:#F08705;}
	.st1{fill:#DF6C0C;}
	.st2{fill:#FFFFFF;}
	.st3{fill:#333333;}
</style>
<g
   id="g12"
   transform="scale(0.0990099)">
	<path
   class="st0"
   d="m 161.6,154.7 c 0,3.9 -3.2,6.9 -6.9,6.9 H 6.9 C 3,161.6 0,158.4 0,154.7 V 6.9 C 0,3 3.2,0 6.9,0 h 147.8 c 3.9,0 6.9,3.2 6.9,6.9 z"
   id="path4" />
	<g
   id="g8">
		<path
   class="st1"
   d="m 161.6,154.7 c 0,3.9 -3.2,6.9 -6.9,6.9 H 55.3 l -32.2,-32.7 20,-32.7 59.4,-73.8 58.9,60.7 z"
   id="path6" />
	</g>
	<path
   class="st2"
   d="m 132.7,90.3 h -17 l -18,-30.6 c 4,-0.8 7,-4.4 7,-8.6 V 28 c 0,-4.9 -3.9,-8.8 -8.8,-8.8 h -30 c -4.9,0 -8.8,3.9 -8.8,8.8 v 23.1 c 0,4.3 3,7.8 6.9,8.6 L 46,90.4 H 29 c -4.9,0 -8.8,3.9 -8.8,8.8 v 23.1 c 0,4.9 3.9,8.8 8.8,8.8 h 30 c 4.9,0 8.8,-3.9 8.8,-8.8 V 99.2 c 0,-4.9 -3.9,-8.8 -8.8,-8.8 H 56.1 L 73.9,60 h 13.9 l 17.9,30.4 h -3 c -4.9,0 -8.8,3.9 -8.8,8.8 v 23.1 c 0,4.9 3.9,8.8 8.8,8.8 h 30 c 4.9,0 8.8,-3.9 8.8,-8.8 V 99.2 c 0,-4.9 -3.9,-8.9 -8.8,-8.9 z"
   id="path10" />
</g>
</svg>
